<?xml version="1.0" encoding="UTF-8" standalone="no"?>
<!DOCTYPE svg PUBLIC "-//W3C//DTD SVG 1.1//EN" "http://www.w3.org/Graphics/SVG/1.1/DTD/svg11.dtd">
<svg width="100%" height="100%" viewBox="0 0 3500 1200" version="1.1" xmlns="http://www.w3.org/2000/svg" xmlns:xlink="http://www.w3.org/1999/xlink" xml:space="preserve" xmlns:serif="http://www.serif.com/" style="fill-rule:evenodd;clip-rule:evenodd;stroke-linejoin:round;stroke-miterlimit:2;">
    <g id="レイヤー1" transform="matrix(0.546728,0,0,0.546728,-57.426,-571.782)">
        <g id="レイヤー11" serif:id="レイヤー1" transform="matrix(1,0,0,1,-10.6043,-4.26326e-13)">
            <path d="M4133.32,2483.66L4132.89,2871.58L4031.95,2871.47L4032.01,2817.38L3936.57,2817.27L3936.51,2871.36L3835.58,2871.24L3835.64,2817.16L3740.2,2817.05L3740.14,2871.13L3639.2,2871.02L3639.26,2816.94L3543.82,2816.83L3543.76,2870.91L3442.83,2870.8L3442.89,2816.72L3370.32,2816.64L3370.46,2688.36L1786.2,2686.58L1786.14,2736.38L1726.76,2736.31L1726.82,2686.51L1658.95,2686.43L1659.03,2614.66L1309.97,2614.26L1309.97,2614.27L1147.33,2532.72C1127.11,2522.58 1116.95,2503.15 1116.83,2483.66L1659.18,2483.66L1659.18,2484.82L3124.77,2484.82C3124.75,2484.44 3124.73,2484.05 3124.72,2483.66L3195.89,2483.66C3195.88,2484.05 3195.87,2484.44 3195.85,2484.82L3370.69,2484.82L3370.69,2483.66L4133.32,2483.66ZM4133.32,2483.66L5586.95,2483.66L5586.77,2651.59L5524.26,2651.52L5524.15,2747.03L4133.03,2745.46L4133.32,2483.66Z" style="fill:white;stroke:white;stroke-width:51.21px;"/>
        </g>
        <g transform="matrix(1,0,0,1,-10.6043,0)">
            <g transform="matrix(0.00472687,-4.16666,-4.16666,-0.00472687,1945.12,2313.42)">
                <path d="M-41.542,52.292L-41.526,38.04L-101.554,38.04L-101.554,52.292L-41.542,52.292Z" style="fill:rgb(74,116,152);"/>
            </g>
            <g transform="matrix(0.00469994,-4.16666,-4.16666,-0.00469994,4168.36,2454.62)">
                <path d="M-7.185,191.433L-7.006,32.626L-87.1,32.626L-87.1,191.433L-7.185,191.433Z" style="fill:rgb(0,102,162);"/>
            </g>
            <g transform="matrix(0.00468665,-4.16666,-4.16666,-0.00468665,5523.01,2750.06)">
                <path d="M63.562,333.595L63.938,-0.273L0.729,-0.273L0.729,333.595L63.562,333.595Z" style="fill:rgb(0,102,162);"/>
            </g>
            <g transform="matrix(0.0047036,-4.16666,-4.16666,-0.0047036,4374.08,2229.88)">
                <path d="M-61,81.938L-60.973,57.713L-154.074,57.713L-154.074,81.938L-61,81.938Z" style="fill:rgb(55,88,125);"/>
            </g>
            <g transform="matrix(0.0047036,-4.16666,-4.16666,-0.0047036,4177.71,2229.65)">
                <path d="M-61.054,81.938L-61.026,57.713L-154.074,57.713L-154.074,81.938L-61.054,81.938Z" style="fill:rgb(55,88,125);"/>
            </g>
            <g transform="matrix(0.0047036,-4.16666,-4.16666,-0.0047036,3981.33,2229.43)">
                <path d="M-61.106,81.937L-61.079,57.713L-154.073,57.713L-154.073,81.937L-61.106,81.937Z" style="fill:rgb(55,88,125);"/>
            </g>
            <g transform="matrix(0.00473542,-4.16666,-4.16666,-0.00473542,3784.96,2229.22)">
                <path d="M-61.158,81.938L-61.131,57.714L-154.073,57.714L-154.073,81.938L-61.158,81.938Z" style="fill:rgb(55,88,125);"/>
            </g>
            <g transform="matrix(0.00469916,-4.16666,-4.16666,-0.00469916,3292.72,2895.19)">
                <path d="M98.046,392.16L98.509,-18.601L49.659,-18.601L49.659,392.16L98.046,392.16Z" style="fill:rgb(138,170,209);"/>
            </g>
            <g transform="matrix(0.00473318,-4.16666,-4.16666,-0.00473318,1439.24,2270.33)">
                <path d="M-51.235,30.933L-51.139,-52.843L-82.58,-52.843L-82.58,30.933L-51.235,30.933Z" style="fill:rgb(74,116,152);"/>
            </g>
            <g transform="matrix(3.72891,-1.85913,-1.85913,-3.72891,1176.16,2583.98)">
                <path d="M39.514,7.202L25.496,-20.835L-0.704,14.096C-3.96,18.439 -4.061,23.701 -2,27.9L39.514,7.202Z" style="fill:rgb(138,170,209);"/>
            </g>
            <g transform="matrix(2.73387,3.14437,-3.14437,2.73387,3271.33,2576.47)">
                <path d="M0,12.883C8.291,20.108 19.532,7.236 11.228,-0.001C2.938,-7.225 -8.304,5.647 0,12.883" style="fill:rgb(74,116,152);fill-rule:nonzero;"/>
            </g>
            <g transform="matrix(2.73387,3.14437,-3.14437,2.73387,3072.93,2561.14)">
                <path d="M0,12.883C8.291,20.108 19.532,7.236 11.228,-0.001C2.938,-7.225 -8.304,5.647 0,12.883" style="fill:rgb(74,116,152);fill-rule:nonzero;"/>
            </g>
            <g transform="matrix(2.73387,3.14437,-3.14437,2.73387,3165.21,2447.16)">
                <path d="M11.442,0.19C19.261,7.391 8.427,19.807 0.234,13.081L11.442,0.19Z" style="fill:rgb(74,116,152);"/>
            </g>
            <g transform="matrix(0.00469545,-4.16666,-4.16666,-0.00469545,5686.66,2385.82)">
                <path d="M-23.525,38.905L-23.508,23.902L-63.813,23.902L-63.813,38.905L-23.525,38.905Z" style="fill:rgb(55,88,125);"/>
            </g>
        </g>
    </g>
    <g id="レイヤー2" transform="matrix(1.28388,0,0,1.28388,-338.251,-876.872)">
        <g>
            <g transform="matrix(1.50084,0,0,1.50084,-408.316,-273.584)">
                <path d="M528.165,866.768L596.709,866.768L596.709,900.752L488.133,900.752C485.541,900.752 483.813,902.48 483.813,905.072L483.813,928.4C483.813,930.992 485.541,932.72 488.133,932.72L596.709,932.72L596.709,975.344C596.709,984.848 595.269,984.848 586.053,984.848C581.157,984.848 568.773,984.56 548.613,983.696C545.733,983.408 543.717,985.424 544.005,988.304L545.157,1010.77C545.445,1013.07 547.173,1014.8 549.477,1015.09C572.517,1015.95 586.341,1016.24 591.525,1016.24C602.757,1016.24 610.821,1015.95 615.717,1015.66C624.069,1014.8 632.997,1009.9 634.437,1000.69C635.013,996.368 635.301,990.032 635.301,981.104L635.301,932.72L737.541,932.72C740.133,932.72 741.861,930.992 741.861,928.4L741.861,905.072C741.861,902.48 740.133,900.752 737.541,900.752L635.301,900.752L635.301,866.768L697.509,866.768C700.101,866.768 701.829,865.04 701.829,862.448L701.829,854.96L728.901,854.96C731.493,854.96 733.221,853.232 733.221,850.64L733.221,789.296C733.221,786.704 731.493,784.976 728.901,784.976L632.133,784.976L632.133,761.36C632.133,758.768 630.405,757.04 627.813,757.04L597.861,757.04C595.269,757.04 593.541,758.768 593.541,761.36L593.541,784.976L496.773,784.976C494.181,784.976 492.453,786.704 492.453,789.296L492.453,850.64C492.453,853.232 494.181,854.96 496.773,854.96L523.845,854.96L523.845,862.448C523.845,865.04 525.573,866.768 528.165,866.768ZM528.741,814.928L696.933,814.928L696.933,836.24L528.741,836.24L528.741,814.928Z" style="fill:rgb(67,165,153);fill-rule:nonzero;stroke:white;stroke-width:6.23px;"/>
            </g>
            <g transform="matrix(1.50084,0,0,1.50084,-515.697,-273.584)">
                <path d="M813.285,1017.68C814.725,1017.68 815.589,1017.1 816.741,1016.53C902.277,956.912 960.453,883.472 1000.2,787.28C1001.64,784.688 1000.2,782.384 997.605,780.944L970.533,770C967.077,768.56 965.061,768.56 963.333,772.88L958.149,786.416C931.365,851.792 882.405,914 826.533,960.08C818.469,966.704 795.717,983.408 792.549,986C791.397,986.864 790.533,990.32 791.685,991.76C797.157,999.248 806.373,1011.34 809.541,1015.38C810.405,1016.82 811.845,1017.68 813.285,1017.68Z" style="fill:rgb(158,222,214);fill-rule:nonzero;stroke:white;stroke-width:6.23px;"/>
            </g>
            <g transform="matrix(1.50084,0,0,1.50084,-603.555,-273.584)">
                <path d="M1060.39,1000.69L1082.85,1017.39C1083.72,1017.97 1084.58,1018.26 1085.44,1018.26C1086.6,1018.26 1087.75,1017.68 1088.61,1016.82C1111.37,993.2 1125.19,965.264 1130.09,933.008L1255.65,933.008L1255.65,972.464C1255.65,979.088 1255.08,982.832 1253.92,983.984C1252.49,985.136 1248.74,985.712 1242.4,985.712C1239.24,985.712 1226.85,985.424 1204.96,984.56C1202.09,984.272 1200.07,986.288 1200.36,989.168L1201.8,1012.21C1202.09,1014.51 1203.81,1016.24 1206.12,1016.53C1229.16,1017.39 1243.85,1017.68 1249.89,1017.68C1260.55,1017.68 1268.61,1017.39 1273.51,1016.82C1284.16,1014.8 1290.79,1007.6 1292.52,996.944C1293.09,991.184 1293.38,982.832 1293.38,971.6L1293.38,770.864C1293.38,768.272 1291.65,766.544 1289.06,766.544L1100.13,766.544C1097.54,766.544 1095.81,768.272 1095.81,770.864L1095.81,871.088C1095.81,919.184 1093.22,957.2 1059.81,994.064C1057.8,996.368 1058.09,998.96 1060.39,1000.69ZM1255.65,833.936L1133.25,833.936L1133.25,797.648L1255.65,797.648L1255.65,833.936ZM1133.25,886.928L1133.25,863.888L1255.65,863.888L1255.65,903.056L1132.96,903.056C1133.25,899.6 1133.25,894.128 1133.25,886.928Z" style="fill:rgb(67,165,153);fill-rule:nonzero;stroke:white;stroke-width:6.23px;"/>
            </g>
            <g transform="matrix(1,0,0,1,-277.518,-6.97282)">
                <g transform="matrix(1.50084,0,0,1.50084,-330.22,-273.584)">
                    <path d="M1573.89,812.912C1575.05,810.608 1574.18,808.592 1571.59,807.44C1539.33,793.616 1528.68,789.296 1477.7,772.88C1475.11,772.016 1472.81,772.592 1471.65,775.472L1463.3,799.664C1462.15,802.832 1463.59,804.56 1466.18,805.424C1480.29,810.032 1522.34,825.008 1545.67,834.224L1557.48,838.832C1560.07,839.984 1562.09,839.408 1563.24,836.816L1573.89,812.912ZM1696.58,834.8C1698.02,832.208 1696.87,829.904 1694.28,828.752L1668.07,816.08C1665.48,814.928 1663.17,815.792 1662.02,818.096L1655.4,830.48C1615.37,905.36 1553.44,952.88 1479.43,992.048C1476.84,993.488 1475.97,995.504 1477.99,998.096L1491.81,1022.58C1493.54,1025.46 1496.71,1025.74 1498.44,1024.3C1543.65,999.824 1582.82,977.36 1617.96,943.088C1651.08,911.12 1674.98,874.832 1696.58,834.8ZM1548.26,875.696C1549.12,873.104 1547.68,871.376 1545.67,870.224L1457.83,843.728C1455.24,842.576 1453.22,844.304 1452.36,846.608L1443.43,872.816C1442.57,875.408 1443.72,877.136 1445.73,878.288C1445.73,878.576 1480.29,888.944 1533.57,905.072C1536.74,905.936 1538.47,904.784 1539.33,902.192L1548.26,875.696Z" style="fill:rgb(67,165,153);fill-rule:nonzero;stroke:white;stroke-width:6.23px;"/>
                </g>
                <g transform="matrix(1.75314,0,0,1.75314,2155.47,817.743)">
                    <path d="M0,29.468C-8.138,29.468 -14.734,22.871 -14.734,14.734C-14.734,6.596 -8.138,-0.001 0,-0.001C8.137,-0.001 14.733,6.596 14.733,14.734C14.733,22.871 8.137,29.468 0,29.468M50,23.791L50,5.676L40.541,5.127C39.502,0.727 37.771,-3.404 35.461,-7.142L41.76,-14.217L28.949,-27.026L21.876,-20.727C18.137,-23.038 14.006,-24.768 9.605,-25.807L9.058,-35.266L-9.059,-35.266L-9.607,-25.807C-14.008,-24.768 -18.139,-23.038 -21.877,-20.727L-28.951,-27.026L-41.762,-14.217L-35.462,-7.142C-37.773,-3.404 -39.503,0.727 -40.542,5.127L-50,5.676L-50,23.791L-40.542,24.34C-39.503,28.74 -37.773,32.871 -35.462,36.61L-41.762,43.684L-28.951,56.493L-21.877,50.195C-18.139,52.505 -14.008,54.236 -9.607,55.275L-9.059,64.734L9.058,64.734L9.605,55.275C14.006,54.236 18.137,52.505 21.876,50.195L28.949,56.493L41.76,43.684L35.461,36.61C37.771,32.871 39.502,28.74 40.541,24.34L50,23.791Z" style="fill:rgb(67,165,153);fill-rule:nonzero;stroke:white;stroke-width:5.33px;"/>
                </g>
                <g transform="matrix(1.75314,0,0,1.75314,2331.38,834.782)">
                    <path d="M0,-49.276C-13.606,-49.276 -24.638,-38.245 -24.638,-24.638C-24.638,-11.032 -13.606,-0.001 0,-0.001C13.606,-0.001 24.638,-11.032 24.638,-24.638C24.638,-38.245 13.606,-49.276 0,-49.276M0,5.072C-16.408,5.072 -29.71,-8.23 -29.71,-24.638C-29.71,-41.047 -16.408,-54.348 0,-54.348C16.407,-54.348 29.71,-41.047 29.71,-24.638C29.71,-8.23 16.407,5.072 0,5.072M50,-15.581L50,-33.696L40.541,-34.245C39.502,-38.645 37.771,-42.776 35.461,-46.514L41.76,-53.589L28.95,-66.398L21.876,-60.099C18.138,-62.41 14.007,-64.14 9.606,-65.179L9.058,-74.638L-9.058,-74.638L-9.606,-65.179C-14.007,-64.14 -18.139,-62.41 -21.876,-60.099L-28.951,-66.398L-41.761,-53.589L-35.461,-46.514C-37.772,-42.776 -39.503,-38.645 -40.541,-34.245L-50,-33.696L-50,-15.581L-40.541,-15.032C-39.503,-10.631 -37.772,-6.501 -35.461,-2.762L-41.761,4.312L-28.951,17.121L-21.876,10.823C-18.139,13.133 -14.007,14.864 -9.606,15.903L-9.058,25.362L9.058,25.362L9.606,15.903C14.007,14.864 18.138,13.133 21.876,10.823L28.95,17.121L41.76,4.312L35.461,-2.762C37.771,-6.501 39.502,-10.631 40.541,-15.032L50,-15.581Z" style="fill:rgb(67,165,153);fill-rule:nonzero;stroke:white;stroke-width:5.33px;"/>
                </g>
            </g>
            <g transform="matrix(1.40566,-0.525971,0.525971,1.40566,-996.698,790.017)">
                <path d="M1962.69,973.328C1962.69,970.16 1960.97,968.432 1958.09,968.432L1905.96,968.432C1912.87,921.2 1916.9,874.256 1917.48,862.16C1917.77,859.28 1916.9,857.264 1915.46,855.536L1904.52,844.304C1902.79,842.576 1900.49,841.712 1898.47,841.712L1788.16,841.712C1785,841.712 1783.56,843.44 1783.56,846.32L1783.56,869.648C1783.56,872.816 1785,874.544 1788.16,874.544L1882.34,874.544C1880.9,894.992 1877.16,932.432 1871.68,968.432L1752.74,968.432C1749.86,968.432 1748.13,970.16 1748.13,973.328L1748.13,996.656C1748.13,999.824 1749.86,1001.26 1752.74,1001.26L1958.09,1001.26C1960.97,1001.26 1962.69,999.824 1962.69,996.656L1962.69,973.328Z" style="fill:rgb(89,217,201);fill-rule:nonzero;stroke:white;stroke-width:6.23px;"/>
            </g>
            <g transform="matrix(1.43654,0.434597,-0.434597,1.43654,-289.798,-1146.58)">
                <path d="M2026.05,874.832L2026.05,904.784C2026.05,907.376 2027.78,909.104 2030.37,909.104L2250.41,909.104C2253,909.104 2254.72,907.376 2254.72,904.784L2254.72,874.832C2254.72,872.24 2253,870.512 2250.41,870.512L2030.37,870.512C2027.78,870.512 2026.05,872.24 2026.05,874.832Z" style="fill:rgb(158,222,214);fill-rule:nonzero;stroke:white;stroke-width:6.23px;"/>
            </g>
            <g transform="matrix(1.50084,0,0,1.50084,-867.127,-273.584)">
                <path d="M2524.29,885.2C2532.93,868.784 2540.42,852.368 2547.05,835.376C2547.91,833.072 2547.62,830.768 2546.47,828.752L2534.37,810.32C2533.22,808.304 2530.92,807.152 2528.61,807.152L2408.23,807.152C2415.14,795.632 2422.34,784.112 2428.39,772.016C2429.25,770 2428.39,767.408 2426.37,766.544L2399.88,754.736C2397.86,753.872 2395.27,754.736 2394.41,756.752C2371.65,803.696 2341.7,845.744 2306.85,884.624C2305.41,886.352 2305.41,888.944 2307.43,890.384L2329.32,908.528C2331.05,909.968 2333.64,909.68 2335.37,907.952C2353.51,887.504 2369.64,866.192 2385.19,843.728L2502.69,843.728C2475.62,901.904 2437.61,953.456 2394.98,1001.55C2393.54,1003.28 2393.83,1005.87 2395.56,1007.31L2418.31,1025.46C2420.04,1026.9 2422.34,1026.61 2424.07,1024.88C2464.1,979.664 2496.93,936.176 2524.29,885.2Z" style="fill:rgb(89,217,201);fill-rule:nonzero;stroke:white;stroke-width:6.23px;"/>
            </g>
        </g>
    </g>
</svg>
